<svg width="82" height="82" viewBox="0 0 82 82" fill="none" xmlns="http://www.w3.org/2000/svg">
<path d="M74.3125 2.5625H7.6875C4.86875 2.5625 2.5625 4.86875 2.5625 7.6875V74.3125C2.5625 77.1313 4.86875 79.4375 7.6875 79.4375H74.3125C77.1313 79.4375 79.4375 77.1313 79.4375 74.3125V7.6875C79.4375 4.86875 77.1313 2.5625 74.3125 2.5625Z" fill="#676767"/>
<path d="M77.9641 4.03594C77.0031 3.13906 75.7219 2.5625 74.3125 2.5625H7.6875C4.86875 2.5625 2.5625 4.86875 2.5625 7.6875V74.3125C2.5625 75.7219 3.13906 77.0031 4.03594 77.9641L14.7984 67.2016H63.4859C65.6 67.2016 67.2656 65.4719 67.2656 63.4219V14.7344L77.9641 4.03594Z" fill="#CCCCCC"/>
<path opacity="0.5" d="M25.4328 8.26405C25.4328 6.79062 24.4078 6.34218 18.5141 6.53437C13.5812 6.72655 11.1469 7.30312 9.67343 9.09687C8.19999 10.8906 7.81562 14.5422 7.75156 18.8984C7.75156 21.9734 7.75156 24.8562 9.35312 24.8562C11.5312 24.8562 11.5312 19.7953 13.325 16.9766C16.7844 11.4031 25.4328 10.1859 25.4328 8.26405Z" fill="#F7F7F7"/>
<path d="M39.928 51C39.304 49.7347 38.3507 48.556 37.068 47.464V45.462C37.5187 45.6353 37.9347 45.8347 38.316 46.06C38.7147 46.268 39.0873 46.4933 39.434 46.736V32.826H41.566V46.762C41.9127 46.5193 42.2767 46.294 42.658 46.086C43.0567 45.8607 43.4813 45.6613 43.932 45.488V47.464C42.6493 48.556 41.6873 49.7347 41.046 51H39.928Z" fill="black" fill-opacity="0.7"/>
</svg>
