<svg width="82" height="82" viewBox="0 0 82 82" fill="none" xmlns="http://www.w3.org/2000/svg">
<path d="M74.3125 2.5625H7.6875C4.86875 2.5625 2.5625 4.86875 2.5625 7.6875V74.3125C2.5625 77.1313 4.86875 79.4375 7.6875 79.4375H74.3125C77.1313 79.4375 79.4375 77.1313 79.4375 74.3125V7.6875C79.4375 4.86875 77.1313 2.5625 74.3125 2.5625Z" fill="#676767"/>
<path d="M77.9641 4.03594C77.0031 3.13906 75.7219 2.5625 74.3125 2.5625H7.6875C4.86875 2.5625 2.5625 4.86875 2.5625 7.6875V74.3125C2.5625 75.7219 3.13906 77.0031 4.03594 77.9641L14.7984 67.2016H63.4859C65.6 67.2016 67.2656 65.4719 67.2656 63.4219V14.7344L77.9641 4.03594Z" fill="#CCCCCC"/>
<path opacity="0.5" d="M25.4328 8.26405C25.4328 6.79062 24.4078 6.34218 18.5141 6.53437C13.5813 6.72655 11.1469 7.30312 9.67344 9.09687C8.2 10.8906 7.81563 14.5422 7.75156 18.8984C7.75156 21.9734 7.75156 24.8562 9.35313 24.8562C11.5313 24.8562 11.5313 19.7953 13.325 16.9766C16.7844 11.4031 25.4328 10.1859 25.4328 8.26405Z" fill="#F7F7F7"/>
<path d="M34.8105 46.7148V49H27.2422V46.7148H34.8105ZM28.1992 34.7812V49H25.2695V34.7812H28.1992ZM33.8242 40.5723V42.7988H27.2422V40.5723H33.8242ZM34.8008 34.7812V37.0762H27.2422V34.7812H34.8008ZM42.0566 46.0801C42.0566 45.8783 41.998 45.696 41.8809 45.5332C41.7637 45.3704 41.5456 45.2207 41.2266 45.084C40.9141 44.9408 40.4616 44.8105 39.8691 44.6934C39.3353 44.5762 38.8372 44.4297 38.375 44.2539C37.9193 44.0716 37.5221 43.8535 37.1836 43.5996C36.8516 43.3457 36.5911 43.0462 36.4023 42.7012C36.2135 42.3496 36.1191 41.9492 36.1191 41.5C36.1191 41.0573 36.2135 40.6406 36.4023 40.25C36.5977 39.8594 36.8743 39.5143 37.2324 39.2148C37.597 38.9089 38.0397 38.6712 38.5605 38.502C39.0879 38.3262 39.6803 38.2383 40.3379 38.2383C41.2559 38.2383 42.0436 38.3848 42.7012 38.6777C43.3652 38.9707 43.873 39.3743 44.2246 39.8887C44.5827 40.3965 44.7617 40.9759 44.7617 41.627H41.9492C41.9492 41.3535 41.8906 41.1094 41.7734 40.8945C41.6628 40.6732 41.487 40.5007 41.2461 40.377C41.0117 40.2467 40.7057 40.1816 40.3281 40.1816C40.0156 40.1816 39.7454 40.237 39.5176 40.3477C39.2897 40.4518 39.1139 40.5951 38.9902 40.7773C38.873 40.9531 38.8145 41.1484 38.8145 41.3633C38.8145 41.526 38.847 41.6725 38.9121 41.8027C38.9837 41.9264 39.0977 42.0404 39.2539 42.1445C39.4102 42.2487 39.612 42.3464 39.8594 42.4375C40.1133 42.5221 40.4258 42.6003 40.7969 42.6719C41.5586 42.8281 42.2389 43.0332 42.8379 43.2871C43.4368 43.5345 43.9121 43.873 44.2637 44.3027C44.6152 44.7259 44.791 45.2826 44.791 45.9727C44.791 46.4414 44.6868 46.8711 44.4785 47.2617C44.2702 47.6523 43.9707 47.9941 43.5801 48.2871C43.1895 48.5736 42.7207 48.7982 42.1738 48.9609C41.6335 49.1172 41.0247 49.1953 40.3477 49.1953C39.3646 49.1953 38.5312 49.0195 37.8477 48.668C37.1706 48.3164 36.6562 47.8704 36.3047 47.3301C35.9596 46.7832 35.7871 46.2233 35.7871 45.6504H38.4531C38.4661 46.0345 38.5638 46.3438 38.7461 46.5781C38.9349 46.8125 39.1725 46.9818 39.459 47.0859C39.752 47.1901 40.0677 47.2422 40.4062 47.2422C40.7708 47.2422 41.0736 47.1934 41.3145 47.0957C41.5553 46.9915 41.7376 46.8548 41.8613 46.6855C41.9915 46.5098 42.0566 46.3079 42.0566 46.0801ZM50.9824 46.998C51.3275 46.998 51.6335 46.9329 51.9004 46.8027C52.1673 46.666 52.3757 46.4772 52.5254 46.2363C52.6816 45.9889 52.763 45.6992 52.7695 45.3672H55.416C55.4095 46.1094 55.2109 46.7702 54.8203 47.3496C54.4297 47.9225 53.9056 48.375 53.248 48.707C52.5905 49.0326 51.8548 49.1953 51.041 49.1953C50.2207 49.1953 49.5046 49.0586 48.8926 48.7852C48.2871 48.5117 47.7826 48.1341 47.3789 47.6523C46.9753 47.1641 46.6725 46.5977 46.4707 45.9531C46.2689 45.3021 46.168 44.6055 46.168 43.8633V43.5801C46.168 42.8314 46.2689 42.1348 46.4707 41.4902C46.6725 40.8392 46.9753 40.2728 47.3789 39.791C47.7826 39.3027 48.2871 38.9219 48.8926 38.6484C49.498 38.375 50.2077 38.2383 51.0215 38.2383C51.8874 38.2383 52.6458 38.4043 53.2969 38.7363C53.9544 39.0684 54.4688 39.5436 54.8398 40.1621C55.2174 40.7741 55.4095 41.5 55.416 42.3398H52.7695C52.763 41.9883 52.6882 41.6693 52.5449 41.3828C52.4082 41.0964 52.2064 40.8685 51.9395 40.6992C51.679 40.5234 51.3568 40.4355 50.9727 40.4355C50.5625 40.4355 50.2272 40.5234 49.9668 40.6992C49.7064 40.8685 49.5046 41.1029 49.3613 41.4023C49.2181 41.6953 49.1172 42.0306 49.0586 42.4082C49.0065 42.7793 48.9805 43.1699 48.9805 43.5801V43.8633C48.9805 44.2734 49.0065 44.6673 49.0586 45.0449C49.1107 45.4225 49.2083 45.7578 49.3516 46.0508C49.5013 46.3438 49.7064 46.5749 49.9668 46.7441C50.2272 46.9134 50.5658 46.998 50.9824 46.998Z" fill="black" fill-opacity="0.7"/>
</svg>
