<svg width="82" height="82" viewBox="0 0 82 82" fill="none" xmlns="http://www.w3.org/2000/svg">
<path d="M74.3125 2.5625H7.6875C4.86875 2.5625 2.5625 4.86875 2.5625 7.6875V74.3125C2.5625 77.1313 4.86875 79.4375 7.6875 79.4375H74.3125C77.1313 79.4375 79.4375 77.1313 79.4375 74.3125V7.6875C79.4375 4.86875 77.1313 2.5625 74.3125 2.5625Z" fill="#676767"/>
<path d="M77.9641 4.03594C77.0031 3.13906 75.7219 2.5625 74.3125 2.5625H7.6875C4.86875 2.5625 2.5625 4.86875 2.5625 7.6875V74.3125C2.5625 75.7219 3.13906 77.0031 4.03594 77.9641L14.7984 67.2016H63.4859C65.6 67.2016 67.2656 65.4719 67.2656 63.4219V14.7344L77.9641 4.03594Z" fill="#CCCCCC"/>
<path opacity="0.5" d="M25.4328 8.26405C25.4328 6.79062 24.4078 6.34218 18.5141 6.53437C13.5813 6.72655 11.1469 7.30312 9.67346 9.09687C8.20002 10.8906 7.81565 14.5422 7.75159 18.8984C7.75159 21.9734 7.75159 24.8562 9.35315 24.8562C11.5313 24.8562 11.5313 19.7953 13.325 16.9766C16.7844 11.4031 25.4328 10.1859 25.4328 8.26405Z" fill="#F7F7F7"/>
<path d="M44.562 46.54C44.7353 46.0893 44.926 45.6733 45.134 45.292C45.342 44.8933 45.576 44.5207 45.836 44.174H31.9V42.042H45.836C45.5933 41.6953 45.368 41.3313 45.16 40.95C44.952 40.5513 44.7613 40.1267 44.588 39.676H46.564C47.6387 40.9413 48.8173 41.9033 50.1 42.562V43.68C48.8173 44.304 47.6387 45.2573 46.564 46.54H44.562Z" fill="black" fill-opacity="0.7"/>
</svg>
