<svg width="330" height="82" viewBox="0 0 330 82" fill="none" xmlns="http://www.w3.org/2000/svg">
<path d="M299.062 2.5625H30.9375C19.5937 2.5625 10.3125 4.86875 10.3125 7.6875V74.3125C10.3125 77.1313 19.5937 79.4375 30.9375 79.4375H299.062C310.406 79.4375 319.688 77.1313 319.688 74.3125V7.6875C319.688 4.86875 310.406 2.5625 299.062 2.5625Z" fill="#676767"/>
<path d="M313.758 4.03594C309.891 3.13906 304.734 2.5625 299.063 2.5625H30.9375C19.5938 2.5625 10.3125 4.86875 10.3125 7.6875V74.3125C10.3125 75.7219 12.6328 77.0031 16.2422 77.9641L59.5547 67.2016H255.492C264 67.2016 270.703 65.4719 270.703 63.4219V14.7344L313.758 4.03594Z" fill="#CCCCCC"/>
<path d="M143.672 44.2793C143.672 44.0254 143.633 43.7975 143.555 43.5957C143.483 43.3874 143.346 43.1986 143.145 43.0293C142.943 42.8535 142.66 42.681 142.295 42.5117C141.93 42.3424 141.458 42.1667 140.879 41.9844C140.234 41.776 139.622 41.5417 139.043 41.2812C138.47 41.0208 137.962 40.7181 137.52 40.373C137.083 40.0215 136.738 39.6146 136.484 39.1523C136.237 38.6901 136.113 38.153 136.113 37.541C136.113 36.9486 136.243 36.4115 136.504 35.9297C136.764 35.4414 137.129 35.0247 137.598 34.6797C138.066 34.3281 138.62 34.0579 139.258 33.8691C139.902 33.6803 140.609 33.5859 141.377 33.5859C142.425 33.5859 143.34 33.7747 144.121 34.1523C144.902 34.5299 145.508 35.0475 145.938 35.7051C146.374 36.3626 146.592 37.1146 146.592 37.9609H143.682C143.682 37.5443 143.594 37.1797 143.418 36.8672C143.249 36.5482 142.988 36.2975 142.637 36.1152C142.292 35.9329 141.855 35.8418 141.328 35.8418C140.82 35.8418 140.397 35.9199 140.059 36.0762C139.72 36.2259 139.466 36.431 139.297 36.6914C139.128 36.9453 139.043 37.2318 139.043 37.5508C139.043 37.7917 139.102 38.0098 139.219 38.2051C139.342 38.4004 139.525 38.5827 139.766 38.752C140.007 38.9212 140.303 39.0807 140.654 39.2305C141.006 39.3802 141.413 39.5267 141.875 39.6699C142.65 39.9043 143.33 40.168 143.916 40.4609C144.508 40.7539 145.003 41.0827 145.4 41.4473C145.798 41.8118 146.097 42.2253 146.299 42.6875C146.501 43.1497 146.602 43.6738 146.602 44.2598C146.602 44.8783 146.481 45.4316 146.24 45.9199C145.999 46.4082 145.651 46.8216 145.195 47.1602C144.74 47.4987 144.196 47.7559 143.564 47.9316C142.933 48.1074 142.227 48.1953 141.445 48.1953C140.742 48.1953 140.049 48.1042 139.365 47.9219C138.682 47.7331 138.06 47.4499 137.5 47.0723C136.947 46.6947 136.504 46.2129 136.172 45.627C135.84 45.041 135.674 44.3477 135.674 43.5469H138.613C138.613 43.9896 138.682 44.3639 138.818 44.6699C138.955 44.9759 139.147 45.2233 139.395 45.4121C139.648 45.6009 139.948 45.7376 140.293 45.8223C140.645 45.9069 141.029 45.9492 141.445 45.9492C141.953 45.9492 142.37 45.8776 142.695 45.7344C143.027 45.5911 143.271 45.3926 143.428 45.1387C143.59 44.8848 143.672 44.5983 143.672 44.2793ZM151.23 39.4648V52.0625H148.418V37.4336H151.025L151.23 39.4648ZM157.92 42.5996V42.8047C157.92 43.5729 157.829 44.2858 157.646 44.9434C157.471 45.6009 157.21 46.1738 156.865 46.6621C156.52 47.1439 156.09 47.5215 155.576 47.7949C155.068 48.0618 154.482 48.1953 153.818 48.1953C153.174 48.1953 152.614 48.0651 152.139 47.8047C151.663 47.5443 151.263 47.1797 150.938 46.7109C150.618 46.2357 150.361 45.6855 150.166 45.0605C149.971 44.4355 149.821 43.765 149.717 43.0488V42.5117C149.821 41.7435 149.971 41.0404 150.166 40.4023C150.361 39.7578 150.618 39.2012 150.938 38.7324C151.263 38.2572 151.66 37.8893 152.129 37.6289C152.604 37.3685 153.161 37.2383 153.799 37.2383C154.469 37.2383 155.059 37.3652 155.566 37.6191C156.081 37.873 156.51 38.2376 156.855 38.7129C157.207 39.1882 157.471 39.7546 157.646 40.4121C157.829 41.0697 157.92 41.7988 157.92 42.5996ZM155.098 42.8047V42.5996C155.098 42.1504 155.059 41.737 154.98 41.3594C154.909 40.9753 154.792 40.64 154.629 40.3535C154.473 40.0671 154.264 39.8457 154.004 39.6895C153.75 39.5267 153.441 39.4453 153.076 39.4453C152.692 39.4453 152.363 39.5072 152.09 39.6309C151.823 39.7546 151.605 39.9336 151.436 40.168C151.266 40.4023 151.139 40.6823 151.055 41.0078C150.97 41.3333 150.918 41.7012 150.898 42.1113V43.4688C150.931 43.9505 151.022 44.3835 151.172 44.7676C151.322 45.1452 151.553 45.4447 151.865 45.666C152.178 45.8874 152.588 45.998 153.096 45.998C153.467 45.998 153.779 45.9167 154.033 45.7539C154.287 45.5846 154.492 45.3535 154.648 45.0605C154.811 44.7676 154.925 44.429 154.99 44.0449C155.062 43.6608 155.098 43.2474 155.098 42.8047ZM165.371 45.6172V40.9102C165.371 40.5716 165.316 40.2819 165.205 40.041C165.094 39.7936 164.922 39.6016 164.688 39.4648C164.46 39.3281 164.163 39.2598 163.799 39.2598C163.486 39.2598 163.216 39.3151 162.988 39.4258C162.76 39.5299 162.585 39.6829 162.461 39.8848C162.337 40.0801 162.275 40.3112 162.275 40.5781H159.463C159.463 40.1289 159.567 39.7025 159.775 39.2988C159.984 38.8952 160.286 38.5404 160.684 38.2344C161.081 37.9219 161.553 37.6777 162.1 37.502C162.653 37.3262 163.271 37.2383 163.955 37.2383C164.775 37.2383 165.505 37.375 166.143 37.6484C166.781 37.9219 167.282 38.332 167.646 38.8789C168.018 39.4258 168.203 40.1094 168.203 40.9297V45.4512C168.203 46.0306 168.239 46.5059 168.311 46.877C168.382 47.2415 168.486 47.5605 168.623 47.834V48H165.781C165.645 47.7135 165.54 47.3555 165.469 46.9258C165.404 46.4896 165.371 46.0534 165.371 45.6172ZM165.742 41.5645L165.762 43.1562H164.189C163.818 43.1562 163.496 43.1986 163.223 43.2832C162.949 43.3678 162.725 43.4883 162.549 43.6445C162.373 43.7943 162.243 43.9701 162.158 44.1719C162.08 44.3737 162.041 44.5951 162.041 44.8359C162.041 45.0768 162.096 45.2949 162.207 45.4902C162.318 45.679 162.477 45.8288 162.686 45.9395C162.894 46.0436 163.138 46.0957 163.418 46.0957C163.841 46.0957 164.209 46.0111 164.521 45.8418C164.834 45.6725 165.075 45.4642 165.244 45.2168C165.42 44.9694 165.511 44.735 165.518 44.5137L166.26 45.7051C166.156 45.972 166.012 46.2487 165.83 46.5352C165.654 46.8216 165.43 47.0918 165.156 47.3457C164.883 47.5931 164.554 47.7982 164.17 47.9609C163.786 48.1172 163.33 48.1953 162.803 48.1953C162.132 48.1953 161.523 48.0618 160.977 47.7949C160.436 47.5215 160.007 47.1471 159.688 46.6719C159.375 46.1901 159.219 45.6432 159.219 45.0312C159.219 44.4779 159.323 43.9863 159.531 43.5566C159.74 43.127 160.046 42.7656 160.449 42.4727C160.859 42.1732 161.37 41.9486 161.982 41.7988C162.594 41.6426 163.304 41.5645 164.111 41.5645H165.742ZM174.736 45.998C175.081 45.998 175.387 45.9329 175.654 45.8027C175.921 45.666 176.13 45.4772 176.279 45.2363C176.436 44.9889 176.517 44.6992 176.523 44.3672H179.17C179.163 45.1094 178.965 45.7702 178.574 46.3496C178.184 46.9225 177.66 47.375 177.002 47.707C176.344 48.0326 175.609 48.1953 174.795 48.1953C173.975 48.1953 173.258 48.0586 172.646 47.7852C172.041 47.5117 171.536 47.1341 171.133 46.6523C170.729 46.1641 170.426 45.5977 170.225 44.9531C170.023 44.3021 169.922 43.6055 169.922 42.8633V42.5801C169.922 41.8314 170.023 41.1348 170.225 40.4902C170.426 39.8392 170.729 39.2728 171.133 38.791C171.536 38.3027 172.041 37.9219 172.646 37.6484C173.252 37.375 173.962 37.2383 174.775 37.2383C175.641 37.2383 176.4 37.4043 177.051 37.7363C177.708 38.0684 178.223 38.5436 178.594 39.1621C178.971 39.7741 179.163 40.5 179.17 41.3398H176.523C176.517 40.9883 176.442 40.6693 176.299 40.3828C176.162 40.0964 175.96 39.8685 175.693 39.6992C175.433 39.5234 175.111 39.4355 174.727 39.4355C174.316 39.4355 173.981 39.5234 173.721 39.6992C173.46 39.8685 173.258 40.1029 173.115 40.4023C172.972 40.6953 172.871 41.0306 172.812 41.4082C172.76 41.7793 172.734 42.1699 172.734 42.5801V42.8633C172.734 43.2734 172.76 43.6673 172.812 44.0449C172.865 44.4225 172.962 44.7578 173.105 45.0508C173.255 45.3438 173.46 45.5749 173.721 45.7441C173.981 45.9134 174.32 45.998 174.736 45.998ZM185.664 48.1953C184.844 48.1953 184.108 48.0651 183.457 47.8047C182.806 47.5378 182.253 47.1699 181.797 46.7012C181.348 46.2324 181.003 45.6888 180.762 45.0703C180.521 44.4453 180.4 43.7812 180.4 43.0781V42.6875C180.4 41.8867 180.514 41.1543 180.742 40.4902C180.97 39.8262 181.296 39.25 181.719 38.7617C182.148 38.2734 182.669 37.8991 183.281 37.6387C183.893 37.3717 184.583 37.2383 185.352 37.2383C186.1 37.2383 186.764 37.362 187.344 37.6094C187.923 37.8568 188.408 38.2083 188.799 38.6641C189.196 39.1198 189.495 39.6667 189.697 40.3047C189.899 40.9362 190 41.6393 190 42.4141V43.5859H181.602V41.7109H187.236V41.4961C187.236 41.1055 187.165 40.7572 187.021 40.4512C186.885 40.1387 186.676 39.8913 186.396 39.709C186.117 39.5267 185.758 39.4355 185.322 39.4355C184.951 39.4355 184.632 39.5169 184.365 39.6797C184.098 39.8424 183.88 40.0703 183.711 40.3633C183.548 40.6562 183.424 41.0013 183.34 41.3984C183.262 41.7891 183.223 42.2188 183.223 42.6875V43.0781C183.223 43.5013 183.281 43.8919 183.398 44.25C183.522 44.6081 183.695 44.9173 183.916 45.1777C184.144 45.4382 184.417 45.64 184.736 45.7832C185.062 45.9264 185.43 45.998 185.84 45.998C186.348 45.998 186.82 45.9004 187.256 45.7051C187.699 45.5033 188.079 45.2005 188.398 44.7969L189.766 46.2812C189.544 46.6003 189.242 46.9062 188.857 47.1992C188.48 47.4922 188.024 47.7331 187.49 47.9219C186.956 48.1042 186.348 48.1953 185.664 48.1953Z" fill="black" fill-opacity="0.7"/>
<path opacity="0.5" d="M102.352 8.26405C102.352 6.79062 98.2266 6.34218 74.5078 6.53437C54.6563 6.72655 44.8594 7.30312 38.9297 9.09687C33 10.8906 31.4531 14.5422 31.1953 18.8984C31.1953 21.9734 31.1953 24.8562 37.6406 24.8562C46.4063 24.8562 46.4062 19.7953 53.625 16.9766C67.5469 11.4031 102.352 10.1859 102.352 8.26405Z" fill="#F7F7F7"/>
</svg>
