<?xml version="1.0" encoding="UTF-8" standalone="no"?>
<svg
   height="24"
   viewBox="0 -960 960 960"
   width="24"
   version="1.1"
   id="svg1"
   sodipodi:docname="attack-icon.svg"
   inkscape:export-filename="attack-icon.svg"
   inkscape:export-xdpi="96"
   inkscape:export-ydpi="96"
   xmlns:inkscape="http://www.inkscape.org/namespaces/inkscape"
   xmlns:sodipodi="http://sodipodi.sourceforge.net/DTD/sodipodi-0.dtd"
   xmlns="http://www.w3.org/2000/svg"
   xmlns:svg="http://www.w3.org/2000/svg">
  <defs
     id="defs1" />
  <sodipodi:namedview
     id="namedview1"
     pagecolor="#ffffff"
     bordercolor="#000000"
     borderopacity="0.25"
     inkscape:showpageshadow="2"
     inkscape:pageopacity="0.0"
     inkscape:pagecheckerboard="0"
     inkscape:deskcolor="#d1d1d1" />
  <path
     d="m 762,-96 -117,-116 -88,88 -28,-28 q -23,-23 -23,-57 0,-34 23,-57 l 169,-169 q 23,-23 57,-23 34,0 57,23 l 28,28 -88,88 116,117 q 12,12 12,28 0,16 -12,28 l -50,50 q -12,12 -28,12 -16,0 -28,-12 z m 118,-628 -454,454 5,4 q 23,23 23,57 0,34 -23,57 l -28,28 -88,-88 -117,116 q -12,12 -28,12 -16,0 -28,-12 l -50,-50 q -12,-12 -12,-28 0,-16 12,-28 l 116,-117 -88,-88 28,-28 q 23,-23 57,-23 34,0 57,23 l 4,5 454,-454 h 160 z m -546,141 24,-23 23,-24 -23,24 z m -56,57 -198,-198 v -160 h 160 l 198,198 -57,56 -174,-174 h -47 v 47 l 174,174 z m 92,199 430,-430 v -47 h -47 l -430,430 z m 0,0 -24,-23 -23,-24 23,24 z"
     id="path1"
     style="fill:#334155;fill-opacity:1" />
</svg>
