<?xml version="1.0" encoding="UTF-8" standalone="no"?>
<svg
   height="24"
   viewBox="0 -960 960 960"
   width="24"
   version="1.1"
   id="svg1"
   sodipodi:docname="sound-off.svg"
   inkscape:export-filename="sound-off.png"
   inkscape:export-xdpi="96"
   inkscape:export-ydpi="96"
   xmlns:inkscape="http://www.inkscape.org/namespaces/inkscape"
   xmlns:sodipodi="http://sodipodi.sourceforge.net/DTD/sodipodi-0.dtd"
   xmlns="http://www.w3.org/2000/svg"
   xmlns:svg="http://www.w3.org/2000/svg">
  <defs
     id="defs1" />
  <sodipodi:namedview
     id="namedview1"
     pagecolor="#000000"
     bordercolor="#000000"
     borderopacity="0.25"
     inkscape:showpageshadow="2"
     inkscape:pageopacity="0.0"
     inkscape:pagecheckerboard="0"
     inkscape:deskcolor="#d1d1d1" />
  <path
     d="M 792,-56 671,-177 q -25,16 -53,27.5 -28,11.5 -58,18.5 v -82 q 14,-5 27.5,-10 13.5,-5 25.5,-12 L 480,-368 v 208 L 280,-360 H 120 v -240 h 128 l -192,-192 56,-56 736,736 z m -8,-232 -58,-58 q 17,-31 25.5,-65 8.5,-34 8.5,-70 0,-94 -55,-168 -55,-74 -145,-100 v -82 q 124,28 202,125.5 78,97.5 78,224.5 0,53 -14.5,102 -14.5,49 -41.5,91 z m -134,-134 -90,-90 v -130 q 47,22 73.5,66 26.5,44 26.5,96 0,15 -2.5,29.5 Q 655,-436 650,-422 Z M 480,-592 376,-696 480,-800 Z m -80,238 v -94 l -72,-72 H 200 v 80 h 114 z m -36,-130 z"
     id="path1"
     style="fill:#ffffff" />
</svg>
